<svg width="120" height="120" viewBox="0 0 120 120" fill="none" xmlns="http://www.w3.org/2000/svg">
<rect width="120" height="120" rx="16" fill="#FDE9C3"/>
<path d="M75.1 79L68.5 72.45L67 77C66.8333 77.4667 66.5167 77.6917 66.05 77.675C65.5833 77.6583 65.2667 77.4167 65.1 76.95L60.55 61.8C60.4167 61.4333 60.5 61.1 60.8 60.8C61.1 60.5 61.4333 60.4167 61.8 60.55L76.95 65.1C77.4167 65.2667 77.6583 65.5833 77.675 66.05C77.6917 66.5167 77.4667 66.8333 77 67L72.45 68.5L79.05 75.1C79.6167 75.6667 79.9 76.3167 79.9 77.05C79.9 77.7833 79.6167 78.4333 79.05 79C78.4833 79.5667 77.825 79.85 77.075 79.85C76.325 79.85 75.6667 79.5667 75.1 79ZM48 60C48 56.6667 49.1667 53.8333 51.5 51.5C53.8333 49.1667 56.6667 48 60 48C62.5667 48 64.8583 48.7083 66.875 50.125C68.8917 51.5417 70.3333 53.3833 71.2 55.65C71.4 56.1833 71.3917 56.7 71.175 57.2C70.9583 57.7 70.5833 58.05 70.05 58.25C69.5167 58.45 69.0083 58.4417 68.525 58.225C68.0417 58.0083 67.7 57.6333 67.5 57.1C66.9333 55.6 65.9667 54.375 64.6 53.425C63.2333 52.475 61.7 52 60 52C57.8 52 55.9167 52.7833 54.35 54.35C52.7833 55.9167 52 57.8 52 60C52 61.7 52.475 63.2333 53.425 64.6C54.375 65.9667 55.6 66.9333 57.1 67.5C57.6333 67.7 58.0083 68.05 58.225 68.55C58.4417 69.05 58.45 69.5667 58.25 70.1C58.05 70.6333 57.7 71 57.2 71.2C56.7 71.4 56.1833 71.4 55.65 71.2C53.35 70.3333 51.5 68.875 50.1 66.825C48.7 64.775 48 62.5 48 60Z" fill="#D15220"/>
</svg>
