<svg width="48" height="48" viewBox="0 0 48 48" fill="none" xmlns="http://www.w3.org/2000/svg">
<rect width="48" height="48" rx="24" fill="#FDE9C3"/>
<path d="M23.25 31.5692V24.4307L17 20.8115V27.777C17 27.8281 17.0128 27.8762 17.0385 27.9212C17.0642 27.9661 17.1026 28.0045 17.1537 28.0365L23.25 31.5692ZM24.75 31.5692L30.8462 28.0365C30.8974 28.0045 30.9358 27.9661 30.9615 27.9212C30.9872 27.8762 31 27.8281 31 27.777V20.8115L24.75 24.4307V31.5692ZM23.0963 33.2057L16.404 29.3537C16.1193 29.1897 15.8975 28.9706 15.7385 28.6962C15.5795 28.4217 15.5 28.1204 15.5 27.7922V20.2077C15.5 19.8796 15.5795 19.5782 15.7385 19.3037C15.8975 19.0294 16.1193 18.8102 16.404 18.6462L23.0963 14.7942C23.3808 14.6301 23.682 14.548 24 14.548C24.318 14.548 24.6193 14.6301 24.9038 14.7942L31.596 18.6462C31.8807 18.8102 32.1025 19.0294 32.2615 19.3037C32.4205 19.5782 32.5 19.8796 32.5 20.2077V27.7922C32.5 28.1204 32.4205 28.4217 32.2615 28.6962C32.1025 28.9706 31.8807 29.1897 31.596 29.3537L24.9038 33.2057C24.6193 33.3699 24.318 33.452 24 33.452C23.682 33.452 23.3808 33.3699 23.0963 33.2057ZM27.8558 20.9L30.175 19.5692L24.1538 16.0865C24.1026 16.0545 24.0513 16.0385 24 16.0385C23.9487 16.0385 23.8974 16.0545 23.8463 16.0865L21.675 17.3365L27.8558 20.9ZM24 23.1385L26.325 21.7922L20.15 18.223L17.825 19.5692L24 23.1385Z" fill="#D15220"/>
</svg>
