<svg width="120" height="120" viewBox="0 0 120 120" fill="none" xmlns="http://www.w3.org/2000/svg">
<rect width="120" height="120" rx="16" fill="#FDE9C3"/>
<path d="M48 76H72V56H48V76ZM60 70C61.1 70 62.0417 69.6083 62.825 68.825C63.6083 68.0417 64 67.1 64 66C64 64.9 63.6083 63.9583 62.825 63.175C62.0417 62.3917 61.1 62 60 62C58.9 62 57.9583 62.3917 57.175 63.175C56.3917 63.9583 56 64.9 56 66C56 67.1 56.3917 68.0417 57.175 68.825C57.9583 69.6083 58.9 70 60 70ZM48 80C46.9 80 45.9583 79.6083 45.175 78.825C44.3917 78.0417 44 77.1 44 76V56C44 54.9 44.3917 53.9583 45.175 53.175C45.9583 52.3917 46.9 52 48 52H62V48C62 45.2333 62.975 42.875 64.925 40.925C66.875 38.975 69.2333 38 72 38C74.7667 38 77.125 38.975 79.075 40.925C81.025 42.875 82 45.2333 82 48H78C78 46.3333 77.4167 44.9167 76.25 43.75C75.0833 42.5833 73.6667 42 72 42C70.3333 42 68.9167 42.5833 67.75 43.75C66.5833 44.9167 66 46.3333 66 48V52H72C73.1 52 74.0417 52.3917 74.825 53.175C75.6083 53.9583 76 54.9 76 56V76C76 77.1 75.6083 78.0417 74.825 78.825C74.0417 79.6083 73.1 80 72 80H48Z" fill="#D15220"/>
</svg>
